<svg width="22" height="22" viewBox="0 0 22 22" fill="none" xmlns="http://www.w3.org/2000/svg">
<path d="M15.5835 10.084H6.41683C5.40431 10.084 4.5835 10.9048 4.5835 11.9173V16.5007C4.5835 17.5132 5.40431 18.334 6.41683 18.334H15.5835C16.596 18.334 17.4168 17.5132 17.4168 16.5007V11.9173C17.4168 10.9048 16.596 10.084 15.5835 10.084Z" stroke="#2563EB" stroke-width="1.65" stroke-linecap="round" stroke-linejoin="round"/>
<path d="M7.3335 10.0833V6.41667C7.3335 5.44421 7.7198 4.51158 8.40744 3.82394C9.09507 3.13631 10.0277 2.75 11.0002 2.75C11.9726 2.75 12.9053 3.13631 13.5929 3.82394C14.2805 4.51158 14.6668 5.44421 14.6668 6.41667V10.0833" stroke="#2563EB" stroke-width="1.65" stroke-linecap="round" stroke-linejoin="round"/>
</svg>
